<?xml version="1.0" encoding="utf-8"?>
<!-- Generator: Adobe Illustrator 24.0.2, SVG Export Plug-In . SVG Version: 6.00 Build 0)  -->
<svg version="1.1" id="Layer_1" xmlns="http://www.w3.org/2000/svg" xmlns:xlink="http://www.w3.org/1999/xlink" x="0px" y="0px"
	 viewBox="0 0 512 512" style="enable-background:new 0 0 512 512;" xml:space="preserve">
<style type="text/css">
	.st0{fill:#C1E8F7;}
	.st1{fill:none;}
	.st2{fill:#F4CCAF;}
	.st3{fill:#FCD4B5;}
	.st4{fill:#554C44;}
	.st5{fill:#524C48;}
	.st6{fill:#433F3B;}
	.st7{fill:#494441;}
	.st8{fill:#F3F3F3;}
	.st9{fill:#E2E2E2;}
	.st10{fill:#736D6A;}
</style>
<circle id="XMLID_8257_" class="st0" cx="256.0887" cy="255.7101" r="251.7751"/>
<g id="XMLID_7229_">
	<path id="XMLID_7254_" class="st1" d="M212.8679,282.6574c0,0-0.0007-0.0019-0.0011-0.0019
		c-0.0116,0.3602-0.2831,8.4278-1.7013,14.9196l-1.2445,3.7605c0.0745,0.0565,0.1344,0.082,0.2123,0.1423
		C212.2135,294.5642,212.7623,287.9698,212.8679,282.6574z"/>
	<path id="XMLID_7253_" class="st1" d="M301.0307,298.321c0.2374,0.9854,0.5043,1.9799,0.802,2.9818L301.0307,298.321z"/>
	<path id="XMLID_7252_" class="st2" d="M255.7563,302.6465c-1.893,0-5.1466-0.3182-8.8397-1.1812
		c-13.6261-1.0914-20.1845-6.594-34.0487-18.8078c-0.1056,5.3124-0.6544,11.9068-2.7346,18.8206
		c5.0563,3.9234,16.3937,18.7498,45.2857,40.8737c0.1909,0.1464,0.2374,0.3437,0.3272,0.5268h0.2291
		c0.0898-0.1831,0.1355-0.3804,0.3268-0.5268c29.4083-22.5189,40.6112-37.4456,45.5335-41.0381l-0.003-0.0109
		c-0.2976-1.0019-0.5646-1.9963-0.802-2.9818l-0.0689-0.258c-1.7499-5.9358-1.6983-12.2011-1.6983-12.2011
		c0.0007,0.0019,0.0019,0.0019,0.0019,0.0019c-0.0513-0.9559-0.0846-1.8754-0.1063-2.7676
		c-13.975,12.3052-20.5162,17.6487-34.9304,18.466C260.6805,302.3556,257.5807,302.6465,255.7563,302.6465z"/>
	<path id="XMLID_7251_" class="st3" d="M212.8668,282.6555c0.0004,0,0.0004,0,0.0004,0
		c13.8649,12.2157,20.4234,17.7183,34.0494,18.8097c-9.8573-2.3071-22.9435-8.6341-22.3819-24.1588
		c0.772-21.3399,20.4163-25.34,31.2216-25.34c10.8042,0,30.6588,4.0001,31.4305,25.34
		c0.5683,15.7328-13.0001,22.0273-22.9581,24.2558c14.4142-0.8173,20.9554-6.1608,34.9304-18.466
		c0.4429-0.3894,0.863-0.7589,1.3213-1.1629c18.2137-16.0529,9.037-49.5535,20.0954-47.4602
		c10.2823,1.9469,21.9049-25.3509,16.5063-34.8009c-4.4281-1.5792-7.6517,1.3456-10.9131,7.0403
		c-3.2678,5.7056-1.9971,14.51-5.2477,14.3052c-4.3873-15.4404-3.4044-29.1972-2.5433-45.2355
		c-30.4802,9.2886-61.8823,14.106-87.2803-5.254c-0.2726-0.2067-0.5451-0.4279-0.8173-0.6417
		c-9.7139,0.1992-19.4469,0.4732-28.8553,0.7585c-0.2377,1.702-0.2366,3.5924,0.0584,5.6891
		c0.6387,4.5505,0.9559,10.6949,1.2093,13.4003c0.8832,9.4406-4.7845,21.064-6.8744,23.298
		c-1.358,1.4497-4.6722,7.4862-6.6513,7.989c-1.6253,0.413-0.5219-9.4477-5.9508-17.9542
		c-4.2877-6.7187-6.2731-5.2361-6.2731-5.2361c-8.6892,6.971,3.9488,38.7366,15.0072,36.6418
		c11.0584-2.0933,1.8821,31.4073,20.0958,47.4602c0.2636,0.2321,0.5009,0.4407,0.7589,0.6676
		c0.0191-0.0019,0.0446-0.0094,0.064-0.0112C212.869,282.5897,212.8672,282.6481,212.8668,282.6555z"/>
	<path id="XMLID_7250_" class="st3" d="M247.6523,280.308c1.1577-3.0016,8.104,0.4534,8.104,0.4534s6.9456-3.455,8.1032-0.4534
		c1.1573,3.0001-5.3839,9.6693,6.5693,6.6674c11.9536-3.0001,12.7249-17.0036,3.8492-20.338
		c-8.8745-3.3344-18.5218-2.6673-18.5218-2.6673s-9.6476-0.6672-18.5233,2.6673c-8.8752,3.3344-8.1036,17.3379,3.8496,20.338
		C253.0359,289.9774,246.4943,283.3081,247.6523,280.308z"/>
	<path id="XMLID_7249_" class="st4" d="M339.3353,128.5209c-0.0337-0.1003-0.0637-0.2082-0.0977-0.3089
		c0.0157,0.0861,0.0326,0.1737,0.0487,0.2595C339.3031,128.4864,339.3192,128.5044,339.3353,128.5209z"/>
	<path id="XMLID_7248_" class="st4" d="M257.5898,169.572c-8.8786,0-18.0837,0.1243-27.3094,0.3145
		c0.2722,0.2138,0.5448,0.4351,0.8173,0.6417c25.3981,19.3601,56.8001,14.5426,87.2803,5.254
		c-0.8611,16.0383-1.8439,29.7951,2.5433,45.2355c3.2506,0.2048,1.9798-8.5997,5.2477-14.3052
		c3.2614-5.6947,6.485-8.6195,10.9131-7.0403c0.0082,0.0019,0.0157,0.0019,0.0244,0.0056
		c3.4482-7.6068,5.6059-17.5592,6.4727-28.0695C318.3716,170.8899,286.3477,169.572,257.5898,169.572z"/>
	<path id="XMLID_7247_" class="st4" d="M183.2162,203.0674c5.4288,8.5065,4.3255,18.3671,5.9508,17.9542
		c1.9791-0.5028,5.2933-6.5393,6.6513-7.989c2.0899-2.2341,7.7576-13.8575,6.8744-23.298
		c-0.2535-2.7054-0.5706-8.8498-1.2093-13.4003c-0.295-2.0966-0.2961-3.987-0.0584-5.6891
		c-10.6368,0.3216-20.8367,0.6544-30.1189,0.9105c0.0475,0.6032,0.0809,1.1846,0.1415,1.8118
		c0.4223,4.3783,2.9847,20.5245,5.4955,24.4639C176.9431,197.8313,178.9286,196.3487,183.2162,203.0674z"/>
	<path id="XMLID_7244_" class="st4" d="M264.2287,301.5622c9.958-2.2285,23.5264-8.5229,22.9581-24.2558
		c-0.7717-21.3399-20.6263-25.34-31.4305-25.34c-10.8053,0-30.4495,4.0001-31.2216,25.34
		c-0.5616,15.5247,12.5246,21.8517,22.3819,24.1588c3.6931,0.863,6.9467,1.1812,8.8397,1.1812
		C257.5807,302.6465,260.6805,302.3556,264.2287,301.5622z M241.0826,286.9754c-11.9532-3.0001-12.7249-17.0036-3.8496-20.338
		c8.8756-3.3344,18.5233-2.6673,18.5233-2.6673s9.6473-0.6672,18.5218,2.6673c8.8756,3.3344,8.1044,17.3379-3.8492,20.338
		c-11.9532,3.002-5.412-3.6673-6.5693-6.6674c-1.1577-3.0016-8.1032,0.4534-8.1032,0.4534s-6.9463-3.455-8.104-0.4534
		C246.4943,283.3081,253.0359,289.9774,241.0826,286.9754z"/>
	<path id="XMLID_7243_" class="st5" d="M177.7301,127.2595c8.0669-2.8226,43.1572-8.8737,79.8604-8.8737
		s71.7935,6.0511,79.86,8.8737c0.6646,0.2321,1.2644,0.6803,1.8357,1.212c-0.0161-0.0857-0.033-0.1734-0.0487-0.2595
		c-5.6954-30.3619-14.6474-71.239-23.6279-75.1661c-13.8372-6.0492-23.6249-8.8738-36.6706-5.2428
		c-13.0457,3.6287-14.628,3.2266-21.3485,3.2266c-6.7209,0-8.302,0.4021-21.3481-3.2266
		c-13.0461-3.631-22.8342-0.8065-36.6714,5.2428c-9.0056,3.938-17.9834,45.0382-23.6762,75.4256
		C176.4661,127.9398,177.0659,127.4916,177.7301,127.2595z"/>
	<path id="XMLID_7242_" class="st5" d="M237.7695,146.2485c11.5799-0.808,19.8202-1.1517,19.8202-1.1517
		s8.2433,0.3437,19.8269,1.1535c-11.7799-0.9323-19.8262-1.243-19.8262-1.243S249.5461,145.3181,237.7695,146.2485z"/>
	<path id="XMLID_7241_" class="st6" d="M237.7695,146.2485c11.7765-0.9304,19.8209-1.2411,19.8209-1.2411
		s8.0463,0.3107,19.8262,1.243c20.8363,1.4534,52.5042,4.4187,66.7843,9.6143c1.9608-2.969,0.8566-21.9068-4.8658-27.3439
		c-0.0161-0.0165-0.0322-0.0345-0.049-0.0494c-0.5714-0.5317-1.1711-0.9798-1.8357-1.212
		c-8.0665-2.8226-43.1568-8.8737-79.86-8.8737s-71.7935,6.0511-79.8604,8.8737c-0.6642,0.2321-1.264,0.6803-1.8353,1.212
		c-5.7655,5.3731-6.8804,24.4134-4.9152,27.3933C185.2616,150.6673,216.9339,147.7038,237.7695,146.2485z"/>
	<path id="XMLID_7240_" class="st7" d="M201.425,170.6451c9.4084-0.2853,19.1414-0.5594,28.8553-0.7585
		c9.2257-0.1902,18.4308-0.3145,27.3094-0.3145c28.758,0,60.7819,1.3179,85.9894,2.0364
		c26.6976,0.7589,45.7466,0.8428,45.076-2.0364c-1.7339-7.4462-34.4193-8.4791-40.2668-11.8428
		c-1.1337-0.6526-2.5576-1.2707-4.1873-1.8645c-14.2802-5.1956-45.948-8.1609-66.7843-9.6143
		c-11.5837-0.8098-19.8269-1.1535-19.8269-1.1535s-8.2403,0.3437-19.8202,1.1517c-20.8356,1.4553-52.5079,4.4187-66.7899,9.6162
		c-1.629,0.5923-3.0529,1.2119-4.187,1.8645c-5.8474,3.3636-37.7568,4.3966-40.2672,11.8428
		c-0.9428,2.7987,18.0646,2.7204,44.7806,1.9836C180.5883,171.2995,190.7882,170.9667,201.425,170.6451z"/>
	<path id="XMLID_7239_" class="st8" d="M280.6205,376.0188c0.3336-3.5355-1.5204-7.256-4.3236-10.8937
		c-0.7967,7.7109-5.4884,13.2925-9.727,22.7859c-0.3474,0.7806-1.0869,1.3875-1.8952,1.8301
		c0.6279,3.2741,2.1551,12.5519,4.1832,25.3782c11.6631-20.1463,24.5763-40.7386,31.4237-54.2905
		C290.0899,373.7574,279.993,382.666,280.6205,376.0188z"/>
	<path id="XMLID_7238_" class="st8" d="M245.1509,387.911c-4.2383-9.4934-8.9303-15.075-9.7266-22.7859
		c-2.8032,3.6396-4.6572,7.3582-4.3232,10.8937c0.6234,6.6034-9.3369-2.1461-19.4608-14.9357
		c6.9489,13.1644,19.7251,32.848,31.4945,52.3102c1.8904-11.9229,3.3109-20.5316,3.9099-23.6522
		C246.2371,389.2986,245.4987,388.6917,245.1509,387.911z"/>
	<path id="XMLID_7237_" class="st5" d="M255.9753,342.8784h-0.2291c0.0311,0.0621,0.0947,0.1149,0.1142,0.1827
		C255.8806,342.9934,255.9439,342.9406,255.9753,342.8784z"/>
	<path id="XMLID_7236_" class="st5" d="M266.5698,387.911c4.2386-9.4934,8.9303-15.075,9.727-22.7859
		c-6.9725-9.0512-19.846-17.5577-20.4365-21.4133c-0.5904,3.8556-13.4636,12.3621-20.4361,21.4133
		c0.7964,7.7109,5.4884,13.2925,9.7266,22.7859c0.3478,0.7806,1.0862,1.3875,1.8937,1.8301
		c-0.599,3.1206-2.0195,11.7293-3.9099,23.6522c4.8774,8.0643,9.5859,16.0915,13.6261,23.5979
		c3.6078-6.9706,7.7651-14.3895,12.097-21.8719c-2.0282-12.8264-3.5554-22.1041-4.1832-25.3782
		C265.4829,389.2986,266.2224,388.6917,266.5698,387.911z"/>
	<path id="XMLID_7235_" class="st9" d="M256.3022,342.3517c-0.1913,0.1464-0.237,0.3437-0.3268,0.5268
		c-0.0314,0.0621-0.0947,0.1149-0.1149,0.1827c-0.0195-0.0678-0.0831-0.1206-0.1142-0.1827
		c-0.0898-0.1831-0.1363-0.3804-0.3272-0.5268c-28.892-22.1239-40.2293-36.9503-45.2857-40.8737
		c-0.0779-0.0603-0.1378-0.0858-0.2123-0.1423l-0.1164,0.3527c-17.7838,13.7111-9.3931,31.3766-2.2801,50.5719
		c0.8967,2.4205,2.312,5.4041,4.1158,8.8228c10.1239,12.7896,20.0842,21.5391,19.4608,14.9357
		c-0.334-3.5355,1.5201-7.2541,4.3232-10.8937c6.9725-9.0512,19.8457-17.5577,20.4361-21.4133
		c0.5904,3.8556,13.4639,12.3621,20.4365,21.4133c2.8032,3.6377,4.6572,7.3582,4.3236,10.8937
		c-0.6275,6.6472,9.4695-2.2614,19.6611-15.1899c1.6728-3.309,2.9919-6.2103,3.8328-8.5686
		c6.8419-19.1953,14.8923-36.9908-2.2127-50.7018l-0.0659-0.2449C296.9134,304.906,285.7105,319.8328,256.3022,342.3517z"/>
	<path id="XMLID_7234_" class="st5" d="M245.7151,462.6877c-6.2249-8.6712-13.0263-17.1702-20.4058-25.1446
		c-33.4938-36.197-88.0333-51.0032-88.0333-51.0032s33.1973-40.3125,32.7536-42.7805c-0.4448-2.4681-38.9781-4.3877-38.9781-4.3877
		s3.5509-2.5976,8.7364-6.4622c-28.6737,16.093-64.8517,25.9814-64.8517,25.9814s0.0374,0.0768,0.0648,0.1337
		c23.1745-0.8941,36.4846,57.802,42.3245,106.7471c34.2692,22.6837,74.4064,37.1716,117.6524,40.7659
		C237.8961,491.7258,241.569,475.5268,245.7151,462.6877z"/>
	<path id="XMLID_7233_" class="st6" d="M75.0011,359.0246c-1.7979,0.0693-3.6445,0.4313-5.5621,1.2501
		c-4.8482,2.0735-9.736,19.5869-15.3828,45.6893c17.4424,23.413,38.8774,43.6634,63.2694,59.8077
		C111.4857,416.8266,98.1756,358.1306,75.0011,359.0246z"/>
	<path id="XMLID_7232_" class="st7" d="M391.2119,468.1061c5.7692-49.5483,19.2403-109.9902,42.9254-108.3832
		c0.0049-0.0109,0.0266-0.0551,0.0266-0.0551s-34.1041-9.2575-61.9265-24.4606c3.3008,2.5467,5.4281,4.1645,5.4281,4.1645
		s-37.0611,1.9196-37.4876,4.3877c-0.4279,2.468,31.5001,42.7805,31.5001,42.7805s-52.454,14.8062-84.6689,51.0032
		c-19.2223,21.5998-34.5163,46.9342-44.9274,69.5336c4.6389,0.2542,9.3043,0.4077,14.0072,0.4077
		C305.831,507.4845,352.1631,493.0018,391.2119,468.1061z"/>
	<path id="XMLID_7231_" class="st10" d="M287.0093,437.5432c32.2148-36.197,84.6689-51.0032,84.6689-51.0032
		s-31.9281-40.3125-31.5001-42.7805c0.4265-2.4681,37.4876-4.3877,37.4876-4.3877s-2.1273-1.6178-5.4281-4.1645
		c-8.0029-6.1698-23.0839-17.925-32.7723-26.2738c-9.7952-8.4406-31.4132-20.2433-40.199-23.0696c0,0-0.0019,0-0.0026-0.0019
		c0,0-0.0517,6.2653,1.6983,12.2011l0.0689,0.258l0.802,2.9818l0.003,0.0109l0.0659,0.2449
		c17.105,13.711,9.0546,31.5065,2.2127,50.7018c-0.8409,2.3584-2.1599,5.2596-3.8328,8.5686
		c-6.8475,13.5519-19.7607,34.1441-31.4237,54.2905c-4.3319,7.4825-8.4893,14.9013-12.097,21.8719
		c-4.0402-7.5064-8.7487-15.5336-13.6261-23.5979c-11.7694-19.4623-24.5456-39.1458-31.4945-52.3102
		c-1.8039-3.4187-3.2191-6.4023-4.1158-8.8228c-7.1129-19.1953-15.5037-36.8608,2.2801-50.5719l0.1164-0.3527l1.2445-3.7605
		c1.4182-6.4918,1.6897-14.5594,1.7013-14.9196c0.0004-0.0075,0.0022-0.0659,0.0022-0.0659
		c-0.0195,0.0019-0.0449,0.0093-0.064,0.0112c-8.8153,0.872-32.7978,18.6779-42.0347,26.3326
		c-8.9213,7.3949-22.2658,17.4787-30.9823,23.9761c-5.1855,3.8646-8.7364,6.4622-8.7364,6.4622s38.5333,1.9196,38.9781,4.3877
		c0.4437,2.468-32.7536,42.7805-32.7536,42.7805s54.5394,14.8062,88.0333,51.0032c7.3795,7.9744,14.1809,16.4734,20.4058,25.1446
		c-4.1462,12.8391-7.8191,29.0381-10.7372,43.8499c2.3632,0.1954,4.7224,0.4096,7.1039,0.5391
		C252.493,484.4773,267.787,459.1429,287.0093,437.5432z"/>
	<path id="XMLID_7230_" class="st6" d="M391.2119,468.1061c24.6096-15.689,46.3003-35.519,64.1021-58.5336
		c-5.9178-27.7347-10.9884-46.486-16.0174-48.6358c-1.7758-0.7604-3.4865-1.1004-5.1593-1.2138
		C410.4522,358.1159,396.9811,418.5579,391.2119,468.1061z"/>
</g>
</svg>
